<svg width="196" height="49" viewBox="0 0 196 49" fill="none" xmlns="http://www.w3.org/2000/svg">
<path d="M49.3202 0.0714291H62.4991V47.7268H49.3202V0.0714291Z" fill="#14425A"/>
<path d="M70.1067 10.7124L83.2855 6.10058V47.7269H70.1067V10.7124Z" fill="#14425A"/>
<path d="M90.8882 10.7134H103.346V14.7727C106.101 11.6582 110.368 9.99279 114.5 9.99279C120.441 9.99279 123.627 12.3868 125.365 15.7175C128.551 11.0817 133.475 9.99279 137.174 9.99279C149.12 9.99279 150.137 19.6247 150.137 27.0869V47.7279H136.958V28.6081C136.958 24.1885 135.725 22.1628 132.827 22.1628C128.912 22.1628 127.102 25.7098 127.102 30.2735V47.7279H113.923V28.6081C113.923 24.1885 112.69 22.1628 109.792 22.1628C105.877 22.1628 104.067 25.7098 104.067 30.2735V47.7279H90.8882V10.7134Z" fill="#14425A"/>
<path d="M169.826 43.5953V47.7268H157.368V0.0714291H170.547V13.8348C172.789 11.0085 176.488 9.99962 179.458 9.99962C189.819 9.99962 195.752 18.5507 195.752 29.2635C195.752 39.9764 190.171 48.4554 179.891 48.4554C176.92 48.4554 171.924 47.3665 169.826 43.6034V43.5953ZM182.421 29.2555C182.421 24.8359 179.955 21.5772 176.48 21.5772C173.005 21.5772 170.539 24.8359 170.539 29.2555C170.539 33.6752 173.005 36.8618 176.48 36.8618C179.955 36.8618 182.421 33.7472 182.421 29.2555Z" fill="#14425A"/>
<path d="M34.8368 27.895L32.2666 24.7965L20.9453 35.181C20.9453 35.181 20.9213 35.181 20.9053 35.173L23.051 30.6973L19.5601 26.63L14.9003 31.3699C13.2029 29.3362 12.1781 26.7261 12.1781 23.8757C12.1781 17.4144 17.4144 12.178 23.8757 12.178C27.7589 12.178 31.1937 14.0756 33.3155 16.99L43.1556 9.8161C38.816 3.86719 31.7942 0 23.8677 0C10.6888 0 0 10.6808 0 23.8677C0 37.0546 10.6808 47.7354 23.8677 47.7354C31.7942 47.7354 38.816 43.8682 43.1556 37.9193L34.8368 27.895Z" fill="#14425A"/>
</svg>
