<svg width="1440" height="622" viewBox="0 0 1440 622" fill="none" xmlns="http://www.w3.org/2000/svg">
<path d="M667.98 0.24469C684.005 -1.15554 702.223 3.73437 717.558 7.7818C721.979 9.05443 721.98 9.05484 726.333 8.23102C726.751 7.97859 727.165 7.71823 727.574 7.45172C728.026 7.18091 728.48 6.91211 728.935 6.64508C729.155 6.51487 729.375 6.38471 729.602 6.25055C735.291 3.05695 742.458 2.45547 748.834 3.92242C749.667 4.1448 750.497 4.37667 751.323 4.61969C751.682 4.72521 752.04 4.83129 752.41 4.94C755.34 5.89236 757.988 7.28807 760.675 8.71637C761.516 9.15868 762.362 9.59079 763.21 10.0201C766.675 11.7756 770.078 13.6029 773.446 15.5181C774.974 16.3858 776.504 17.233 778.079 18.025C780.404 19.1987 782.661 20.4756 784.927 21.7466C789.004 24.0318 793.104 26.2791 797.208 28.5211C798.245 29.0903 799.279 29.6653 800.311 30.2427C812.318 36.9202 824.105 39.5042 837.86 37.0308C844.965 35.7606 851.755 35.6791 858.946 36.524C864.929 37.2183 870.909 37.4956 876.928 37.731C877.6 37.759 877.601 37.7591 878.287 37.7877C882.843 37.9741 887.318 38.1017 891.858 37.6929C897.624 37.1984 903.41 37.59 909.181 37.8873C915.412 38.2031 920.85 37.9743 926.849 36.2545C930.437 35.2857 933.936 34.6498 937.667 34.4214C938.048 34.3963 938.43 34.3712 938.823 34.3453C948.307 34.244 958.18 38.6071 966.521 42.3941C975.99 46.6883 984.654 49.0413 995.071 50.1295C997.87 50.4239 1000.67 50.7373 1003.47 51.0464C1003.87 51.0905 1003.87 51.0913 1004.28 51.1363C1011.03 51.881 1017.48 53.0185 1023.98 54.9263C1024.29 55.0155 1024.59 55.104 1024.91 55.1959C1028.52 56.2734 1032.06 57.5456 1035.6 58.8101C1045.26 62.2553 1054.88 64.952 1064.96 67.0572C1072.7 68.6728 1080.3 70.3234 1087.77 72.8336C1108.79 79.8747 1130.65 81.5225 1152.13 75.6373C1158.26 73.9975 1165.9 74.4528 1171.9 76.3775C1172.51 76.5665 1173.13 76.7559 1173.75 76.9449C1178.66 78.4793 1183.45 80.2791 1188.24 82.1226C1190.1 82.8308 1191.95 83.524 1193.81 84.2115C1194.13 84.3316 1194.45 84.451 1194.79 84.5748C1199.2 86.2034 1203.65 87.4316 1208.28 88.4214C1212.28 89.3032 1216.19 90.2594 1220.03 91.6461C1220.53 91.8241 1220.54 91.8248 1221.05 92.0064C1227.76 94.4015 1234.25 97.1085 1240.17 100.961C1244.62 103.851 1249.31 106.456 1254.1 108.823C1254.8 109.171 1255.5 109.526 1256.19 109.882C1259.72 111.667 1263.36 113.272 1267.06 114.753C1272.41 113.292 1277.69 111.63 1282.86 109.738C1284.32 109.228 1285.81 108.815 1287.3 108.404C1288.5 108.064 1289.67 107.683 1290.85 107.297C1294.67 106.109 1298.61 105.306 1302.54 104.488C1302.86 104.421 1303.18 104.355 1303.5 104.286C1310.6 102.813 1317.61 102.49 1324.86 102.334C1340.21 102 1355.41 100.963 1370.63 99.0738C1370.89 99.0418 1371.15 99.01 1371.42 98.9771C1374.43 98.6011 1377.4 98.124 1380.38 97.5533C1381.95 97.2655 1383.53 97.0452 1385.11 96.8277C1391.53 95.9182 1397.85 94.5471 1404.14 93.0884C1404.54 92.9959 1404.54 92.9964 1404.95 92.9019C1406.09 92.6387 1407.23 92.3739 1408.36 92.107C1409.39 91.8679 1410.43 91.6432 1411.46 91.4244C1416.72 90.3087 1421.85 88.8936 1426.98 87.355C1429.9 86.4834 1432.81 85.6781 1435.78 84.9869C1436.08 84.9167 1436.38 84.8473 1436.69 84.775C1437.84 84.5156 1438.82 84.2955 1440 84.2955V148.216C1441.27 148.53 1442.54 148.838 1443.81 149.142C1446.31 149.742 1448.79 150.365 1451.27 150.993C1451.55 151.062 1451.83 151.132 1452.11 151.204C1456.28 152.258 1460.43 153.371 1464.55 154.565C1466.85 155.229 1469.16 155.844 1471.48 156.416C1472.6 156.719 1473.67 157.095 1474.76 157.485C1475.25 157.617 1475.73 157.741 1476.22 157.855C1478.57 158.417 1480.89 159.04 1483.22 159.658C1483.45 159.72 1483.68 159.782 1483.93 159.846C1486.98 160.657 1490.03 161.488 1493.05 162.409C1494.25 162.735 1495.46 162.946 1496.69 163.141C1496.69 163.255 1496.68 163.369 1496.68 163.486C1490.62 164.675 1484.55 165.834 1478.47 166.936C1478.1 167.002 1477.74 167.068 1477.36 167.136C1476.31 167.327 1475.25 167.515 1474.19 167.702C1473.89 167.756 1473.59 167.81 1473.28 167.866C1470.74 168.309 1468.18 168.629 1465.61 168.946C1464.12 169.131 1462.62 169.331 1461.12 169.534C1454.09 170.473 1447.05 171.175 1440 171.683V621.04H-0.000488281V138.686C1.97485 140.516 1.97545 140.516 2.79053 141.687C2.96719 141.937 3.14367 142.188 3.32568 142.446C3.50416 142.703 3.68282 142.96 3.8667 143.225C4.55846 144.217 5.25897 145.201 5.97607 146.177C6.11611 146.374 6.2566 146.571 6.40088 146.774C7.37422 148.016 8.23054 148.419 9.79834 148.692C10.4353 148.769 11.0716 148.834 11.7095 148.889C12.508 148.53 13.3404 148.237 14.2241 147.954C14.6823 147.806 15.1408 147.658 15.6128 147.506C16.1071 147.351 16.6018 147.196 17.0962 147.041C17.4732 146.921 17.4732 146.92 17.8579 146.798C23.0266 145.16 28.2514 143.723 33.5083 142.35C34.4539 142.101 35.3959 141.844 36.3374 141.583C38.3952 141.024 40.4809 140.572 42.5669 140.114C42.958 140.027 43.3495 139.94 43.7524 139.85C46.409 139.264 49.0726 138.72 51.7495 138.218C52.1275 138.146 52.5056 138.073 52.895 137.999C56.073 137.408 59.2644 137.023 62.4858 136.706C62.7581 136.678 63.0305 136.651 63.311 136.623C67.1223 136.244 70.9001 136.029 74.7368 135.983C82.7687 135.883 90.978 135.174 98.7974 133.443C99.1379 133.37 99.4787 133.297 99.8296 133.221C104.437 132.222 108.936 131.128 113.338 129.509C113.678 129.385 114.018 129.261 114.369 129.133C115.403 128.746 116.43 128.343 117.458 127.94C117.939 127.758 118.42 127.576 118.902 127.395C121.988 126.22 124.927 124.908 127.846 123.408C139.524 117.441 152.922 113.922 166.222 113.155C168.519 113.009 170.762 112.669 173.023 112.277C174.666 111.996 176.299 111.784 177.961 111.621C180.398 111.374 182.784 110.98 185.187 110.539C185.573 110.469 185.959 110.4 186.357 110.329C187.168 110.182 187.98 110.035 188.791 109.886C189.713 109.719 190.636 109.555 191.56 109.396C195.397 108.73 199.181 107.914 202.967 107.038C204.687 106.64 206.408 106.248 208.128 105.855C208.639 105.738 208.639 105.738 209.16 105.619C213.714 104.578 218.28 103.585 222.851 102.607C223.315 102.507 223.779 102.407 224.257 102.304C234.919 100.013 245.593 98.1872 256.462 96.9566C265.713 95.9005 275.479 94.3473 283.496 89.6744C287.511 87.541 292.045 85.8568 296.584 85.0435C296.867 84.9925 297.149 84.9418 297.44 84.8892C301.262 84.2249 304.996 83.8708 308.888 84.0377C309.268 84.0531 309.647 84.0686 310.039 84.0845C313.811 84.2687 317.511 84.7708 321.239 85.3336C340.042 88.1463 356.967 85.3438 375.471 82.1353C377.523 81.7803 379.576 81.4364 381.632 81.107C388.882 79.9176 395.212 77.8633 400.488 72.9097C404.119 69.6581 409.529 68.232 414.311 67.2672C425.065 65.0679 433.922 59.6466 442.421 53.3267C443.103 52.821 443.785 52.3155 444.466 51.8101C445.044 51.3812 445.621 50.9513 446.198 50.5211C450.611 47.3026 455.409 44.8704 460.849 43.5904C461.315 43.4737 461.315 43.4732 461.791 43.3541C464.937 42.6015 467.989 42.5343 471.225 42.567C476.481 42.6172 481.748 42.3728 486.939 41.5836C495.842 40.2763 505.767 40.9165 514.417 43.2642C514.85 43.3801 515.282 43.4964 515.727 43.6158C517.006 43.9917 518.266 44.4072 519.525 44.8365C524.233 46.4284 528.934 47.9948 533.75 49.2759C534.093 49.3682 534.437 49.4602 534.791 49.5552C535.902 49.8435 537.017 50.1103 538.136 50.3687C538.598 50.4768 539.059 50.5845 539.535 50.6959C544.468 51.7863 549.44 52.0733 554.482 52.3873C556.173 52.4956 557.864 52.6066 559.555 52.7203C559.97 52.7481 560.386 52.7756 560.814 52.8043C564.208 53.0419 567.582 53.388 570.959 53.7857C581.889 55.0675 592.484 53.8269 601.703 47.941C601.904 47.8137 602.106 47.6864 602.313 47.5552C608.733 43.4631 614.852 38.4456 620.105 33.0933C620.835 32.3529 621.588 31.6355 622.342 30.9166C625.442 27.9378 628.436 24.8705 631.369 21.7476C632.39 20.6668 633.421 19.5945 634.458 18.5269C634.63 18.3487 634.803 18.1705 634.98 17.9869C636.061 16.8772 637.2 15.8546 638.38 14.8384C639.284 13.9606 640.177 13.0741 641.068 12.1851C641.318 11.9657 641.569 11.7461 641.827 11.5201C642.07 11.5293 642.313 11.538 642.564 11.5474C642.573 11.3202 642.581 11.093 642.59 10.8589C648.679 4.90558 658.485 1.56204 666.972 0.398987C667.305 0.347989 667.637 0.297233 667.98 0.24469Z" fill="#A9E6F6"/>
</svg>
